<!DOCTYPE svg PUBLIC "-//W3C//DTD SVG 1.1//EN" "http://www.w3.org/Graphics/SVG/1.1/DTD/svg11.dtd">
<!-- Uploaded to: SVG Repo, www.svgrepo.com, Transformed by: SVG Repo Mixer Tools -->
<svg fill="#292929" width="64px" height="64px" viewBox="0 0 24 24" xmlns="http://www.w3.org/2000/svg" stroke="#292929">
<g id="SVGRepo_bgCarrier" stroke-width="0"/>
<g id="SVGRepo_tracerCarrier" stroke-linecap="round" stroke-linejoin="round"/>
<g id="SVGRepo_iconCarrier">
<path d="M5,13.9V22a1,1,0,0,0,1,1h4a1,1,0,0,0,1-1V14.618L15.553,16.9A1,1,0,0,0,17,16V2a1,1,0,0,0-1.447-.895L9.764,4H6a5,5,0,0,0-1,9.9ZM9,21H7V14H9ZM6,6h4a1,1,0,0,0,.447-.105L15,3.618V14.382l-4.552-2.277c-.009,0-.02,0-.029-.006a.983.983,0,0,0-.412-.1H6A3,3,0,0,1,6,6ZM23,9a4,4,0,0,1-4,4,1,1,0,0,1,0-2,2,2,0,0,0,0-4,1,1,0,0,1,0-2A4,4,0,0,1,23,9Z"/>
</g>
</svg>